<?xml version="1.0" encoding="UTF-8" standalone="no"?>
<svg
   xmlns:dc="http://purl.org/dc/elements/1.1/"
   xmlns:cc="http://creativecommons.org/ns#"
   xmlns:rdf="http://www.w3.org/1999/02/22-rdf-syntax-ns#"
   xmlns:svg="http://www.w3.org/2000/svg"
   xmlns="http://www.w3.org/2000/svg"
   xmlns:sodipodi="http://sodipodi.sourceforge.net/DTD/sodipodi-0.dtd"
   xmlns:inkscape="http://www.inkscape.org/namespaces/inkscape"
   width="797.75989"
   height="286.96661"
   viewBox="0 0 797.75989 286.96661"
   version="1.1"
   id="svg4579"
   sodipodi:docname="logo.svg"
   inkscape:version="0.92.1 r15371">
  <metadata
     id="metadata4583">
    <rdf:RDF>
      <cc:Work
         rdf:about="">
        <dc:format>image/svg+xml</dc:format>
        <dc:type
           rdf:resource="http://purl.org/dc/dcmitype/StillImage" />
        <dc:title>Group 3</dc:title>
      </cc:Work>
    </rdf:RDF>
  </metadata>
  <sodipodi:namedview
     pagecolor="#ffffff"
     bordercolor="#666666"
     borderopacity="1"
     objecttolerance="10"
     gridtolerance="10"
     guidetolerance="10"
     inkscape:pageopacity="0"
     inkscape:pageshadow="2"
     inkscape:window-width="1366"
     inkscape:window-height="705"
     id="namedview4581"
     showgrid="false"
     inkscape:zoom="0.6873552"
     inkscape:cx="350.49987"
     inkscape:cy="190.72662"
     inkscape:window-x="-8"
     inkscape:window-y="-8"
     inkscape:window-maximized="1"
     inkscape:current-layer="Group-3"
     fit-margin-top="0"
     fit-margin-left="0"
     fit-margin-right="0"
     fit-margin-bottom="0" />
  <!-- Generator: Sketch 42 (36781) - http://www.bohemiancoding.com/sketch -->
  <title
     id="title4485">Group 3</title>
  <desc
     id="desc4487">Created with Sketch.</desc>
  <defs
     id="defs4504">
    <linearGradient
       x1="79.733767"
       y1="-309.98696"
       x2="67.346188"
       y2="524.71412"
       id="linearGradient-1"
       gradientTransform="scale(1.6491296,0.60638049)"
       gradientUnits="userSpaceOnUse">
      <stop
         stop-color="#F8004F"
         stop-opacity="0.326"
         offset="0%"
         id="stop4489" />
      <stop
         stop-color="#F8004F"
         stop-opacity="0.23"
         offset="100%"
         id="stop4491" />
    </linearGradient>
    <linearGradient
       x1="69.084561"
       y1="-195.90527"
       x2="67.346187"
       y2="339.51627"
       id="linearGradient-2"
       gradientTransform="scale(1.6491296,0.60638048)"
       gradientUnits="userSpaceOnUse">
      <stop
         stop-color="#F8004F"
         stop-opacity="0.184"
         offset="0%"
         id="stop4494" />
      <stop
         stop-color="#F8004F"
         stop-opacity="0.69"
         offset="100%"
         id="stop4496" />
    </linearGradient>
    <linearGradient
       x1="69.084561"
       y1="-386.39449"
       x2="67.346187"
       y2="149.02703"
       id="linearGradient-3"
       gradientTransform="scale(1.6491296,0.60638048)"
       gradientUnits="userSpaceOnUse">
      <stop
         stop-color="#F8004F"
         stop-opacity="0"
         offset="0%"
         id="stop4499" />
      <stop
         stop-color="#F8004F"
         stop-opacity="0.582"
         offset="100%"
         id="stop4501" />
    </linearGradient>
  </defs>
  <g
     id="Page-1"
     style="fill:none;fill-rule:evenodd;stroke:none;stroke-width:1"
     transform="translate(-97.00013,-150.76)">
    <g
       id="Group-3"
       transform="translate(-29,3)">
      <g
         id="mylogo"
         transform="translate(133,156)">
        <g
           id="to-collect">
          <g
             id="Group"
             transform="translate(312,142)"
             style="fill:#f7004f;fill-opacity:0.94100001;fill-rule:nonzero">
            <path
               d="m 57.35,133.937 c -2.892,0 -5.280667,-0.88 -7.166,-2.64 -1.76,-1.88533 -2.64,-4.27367 -2.64,-7.165 V 16.276 H 9.832 c -6.0333333,0 -9.05,-2.702667 -9.05,-8.108 0,-2.64 0.754,-4.6513333 2.262,-6.034 C 4.678,0.75133333 6.9406667,0.06 9.832,0.06 h 95.034 c 2.89133,0 5.09133,0.69133333 6.6,2.074 1.634,1.3826667 2.451,3.394 2.451,6.034 0,5.405333 -3.01667,8.108 -9.05,8.108 H 67.154 v 107.856 c 0,2.89133 -0.88,5.27967 -2.64,7.165 -1.76,1.76 -4.148333,2.64 -7.165,2.64 z m 118.088,-24.136 c 1.76,0 3.20533,0.69167 4.336,2.075 1.13133,1.38267 1.697,3.14267 1.697,5.28 0,3.64533 -2.26267,6.725 -6.788,9.239 -4.4,2.51333 -9.23967,4.46167 -14.519,5.845 -5.15333,1.38267 -10.11867,2.074 -14.896,2.074 -14.582,0 -26.08433,-4.211 -34.507,-12.633 -8.422,-8.548 -12.633,-20.176 -12.633,-34.884 0,-9.428 1.822667,-17.787333 5.468,-25.078 3.77133,-7.291333 8.988,-12.948 15.65,-16.97 6.78867,-4.023333 14.457,-6.035 23.005,-6.035 12.31933,0 22.06167,3.96 29.227,11.88 7.16533,7.919333 10.748,18.604333 10.748,32.055 0,5.028 -2.26267,7.542 -6.788,7.542 h -58.266 c 1.25733,19.48467 10.62267,29.227 28.096,29.227 4.65133,0 8.674,-0.62867 12.068,-1.886 3.39333,-1.25667 6.976,-2.89067 10.748,-4.902 0.37667,-0.25133 1.38233,-0.75433 3.017,-1.509 1.76,-0.88 3.20567,-1.32 4.337,-1.32 z m -32.81,-57.133 c -7.29067,0 -13.136,2.325333 -17.536,6.976 -4.4,4.651333 -7.04,11.188 -7.92,19.61 h 48.649 c -0.37733,-8.547333 -2.57733,-15.084 -6.6,-19.61 -3.89667,-4.650667 -9.42767,-6.976 -16.593,-6.976 z"
               id="path4510"
               inkscape:connector-curvature="0" />
            <path
               d="m 241.483,39.091 c 6.034,-0.376667 9.051,2.200333 9.051,7.731 0,2.766 -0.69133,4.840333 -2.074,6.223 -1.38267,1.382667 -3.771,2.199667 -7.165,2.451 l -5.657,0.566 c -7.92,0.754 -13.82833,3.519333 -17.725,8.296 -3.77133,4.777333 -5.657,10.56 -5.657,17.348 v 43.18 c 0,3.01733 -0.88,5.28 -2.64,6.788 -1.76,1.50867 -4.02267,2.263 -6.788,2.263 -2.76533,0 -5.09067,-0.75433 -6.976,-2.263 -1.76,-1.508 -2.64,-3.77067 -2.64,-6.788 V 48.142 c 0,-2.891333 0.88,-5.091333 2.64,-6.6 1.88533,-1.633333 4.21067,-2.45 6.976,-2.45 2.51467,0 4.589,0.816667 6.223,2.45 1.76,1.508667 2.64,3.646 2.64,6.412 v 9.05 c 2.51333,-5.530667 6.15867,-9.741667 10.936,-12.633 4.77667,-2.891333 10.182,-4.588333 16.216,-5.091 z"
               id="path4512"
               inkscape:connector-curvature="0" />
            <path
               d="m 362.674,38.714 c 20.616,0 30.924,12.382333 30.924,37.147 v 49.025 c 0,2.89133 -0.88,5.154 -2.64,6.788 -1.76,1.50867 -4.08567,2.263 -6.977,2.263 -2.76533,0 -5.028,-0.75433 -6.788,-2.263 -1.76,-1.63333 -2.64,-3.896 -2.64,-6.788 V 76.05 c 0,-7.668 -1.38267,-13.199 -4.148,-16.593 -2.76533,-3.52 -7.102,-5.28 -13.01,-5.28 -6.914,0 -12.38233,2.388667 -16.405,7.166 -4.02267,4.650667 -6.034,11.061667 -6.034,19.233 v 44.311 c 0,2.89133 -0.88,5.154 -2.64,6.788 -1.76,1.50867 -4.08567,2.263 -6.977,2.263 -2.76533,0 -5.028,-0.75433 -6.788,-2.263 -1.76,-1.63333 -2.64,-3.896 -2.64,-6.788 V 76.05 c 0,-7.668 -1.38267,-13.199 -4.148,-16.593 -2.766,-3.52 -7.10267,-5.28 -13.01,-5.28 -6.91467,0 -12.446,2.388667 -16.594,7.166 -4.02267,4.650667 -6.034,11.061667 -6.034,19.233 v 44.311 c 0,2.89133 -0.88,5.154 -2.64,6.788 -1.76,1.50867 -4.02267,2.263 -6.788,2.263 -2.76533,0 -5.091,-0.75433 -6.977,-2.263 -1.76,-1.63333 -2.64,-3.896 -2.64,-6.788 V 48.143 c 0,-2.765333 0.943,-4.965333 2.829,-6.6 1.88533,-1.633333 4.148,-2.45 6.788,-2.45 2.64,0 4.777,0.816667 6.411,2.45 1.76,1.508667 2.64,3.646 2.64,6.412 v 6.976 c 2.76533,-5.279333 6.59933,-9.301667 11.502,-12.067 4.90267,-2.766 10.55933,-4.149 16.97,-4.149 7.04,0 12.82267,1.445667 17.348,4.337 4.65133,2.891333 8.108,7.354 10.37,13.388 2.76667,-5.405333 6.85233,-9.679333 12.257,-12.822 5.40533,-3.268667 11.565,-4.903 18.479,-4.903 z m 78.374,95.6 c -12.822,0 -23.31867,-2.64 -31.49,-7.92 -2.26267,-1.382 -3.89667,-2.82733 -4.902,-4.336 -0.88,-1.50867 -1.32,-3.20567 -1.32,-5.091 0,-2.01133 0.56567,-3.70833 1.697,-5.091 1.13133,-1.38333 2.577,-2.075 4.337,-2.075 1.63333,0 4.21,1.00567 7.73,3.017 3.77133,2.01133 7.417,3.64567 10.937,4.903 3.64533,1.25733 8.17067,1.886 13.576,1.886 6.034,0 10.748,-1.06867 14.142,-3.206 3.394,-2.13667 5.091,-5.15333 5.091,-9.05 0,-2.51467 -0.69133,-4.52633 -2.074,-6.035 -1.25667,-1.508 -3.51933,-2.828 -6.788,-3.96 -3.268,-1.256667 -8.10767,-2.576667 -14.519,-3.96 -11.062,-2.388 -19.04433,-5.593333 -23.947,-9.616 -4.77667,-4.148 -7.165,-9.742 -7.165,-16.782 0,-5.405333 1.57133,-10.245 4.714,-14.519 3.14267,-4.4 7.47933,-7.794 13.01,-10.182 5.53133,-2.388667 11.81667,-3.583 18.856,-3.583 5.02867,0 9.93133,0.691333 14.708,2.074 4.77667,1.257333 8.98767,3.143 12.633,5.657 4.14867,2.766 6.223,5.971667 6.223,9.617 0,2.011333 -0.62867,3.708333 -1.886,5.091 -1.13133,1.382667 -2.514,2.074 -4.148,2.074 -1.13133,0 -2.26267,-0.251333 -3.394,-0.754 -1.13133,-0.502667 -2.64,-1.319667 -4.526,-2.451 -3.39333,-2.011333 -6.59867,-3.582667 -9.616,-4.714 -2.89133,-1.131333 -6.537,-1.697 -10.937,-1.697 -5.28,0 -9.554,1.131333 -12.822,3.394 -3.14267,2.262667 -4.714,5.342667 -4.714,9.24 0,3.519333 1.44567,6.284667 4.337,8.296 3.01733,1.885333 8.61133,3.708 16.782,5.468 8.42267,1.76 15.02233,3.771333 19.799,6.034 4.77667,2.262667 8.17067,5.091 10.182,8.485 2.13733,3.268667 3.206,7.48 3.206,12.634 0,8.17067 -3.457,14.77 -10.371,19.798 -6.788,4.90267 -15.90167,7.354 -27.341,7.354 z"
               id="path4514"
               inkscape:connector-curvature="0" />
          </g>
          <g
             id="g4521">
            <polygon
               id="polygon4517"
               points="223.79399,73.24946 0.294295,73.24946 0.294295,0.2934665 223.79399,0.2934665 "
               style="fill:url(#linearGradient-1);fill-rule:nonzero;stroke:#f8004f;stroke-width:14.58832932;stroke-linecap:round;stroke-linejoin:round" />
            <path
               d="M 136.675,6.282 V 72.43"
               id="path4519"
               inkscape:connector-curvature="0"
               style="stroke:#f9004f;stroke-width:14.58699989" />
          </g>
          <g
             id="g4527"
             transform="translate(0,100)">
            <polygon
               id="polygon4523"
               points="223.79399,73.745459 0.294295,73.745459 0.294295,0.7894665 223.79399,0.7894665 "
               style="fill:url(#linearGradient-2);fill-rule:nonzero;stroke:#f8004f;stroke-width:14.58832932;stroke-linecap:round;stroke-linejoin:round" />
            <path
               d="M 136.675,6.778 V 72.925"
               id="path4525"
               inkscape:connector-curvature="0"
               style="stroke:#f9004f;stroke-width:14.58699989" />
          </g>
          <g
             id="g4533"
             transform="translate(0,198)">
            <polygon
               id="polygon4529"
               points="223.79399,73.432459 0.294295,73.432459 0.294295,0.4764665 223.79399,0.4764665 "
               style="fill:url(#linearGradient-3);fill-rule:nonzero;stroke:#f8004f;stroke-width:14.58832932;stroke-linecap:round;stroke-linejoin:round" />
            <path
               d="M 136.675,6.465 V 72.612"
               id="path4531"
               inkscape:connector-curvature="0"
               style="stroke:#f9004f;stroke-width:14.58699989" />
          </g>
          <path
             d="M 101.749,36.772 H 35.602 m 66.147,100.496 H 35.602 m 66.147,97.687 H 35.602"
             id="path4535"
             inkscape:connector-curvature="0"
             style="stroke:#f9004f;stroke-width:14.5880003;stroke-linecap:round;stroke-linejoin:round;stroke-opacity:0.94100001" />
        </g>
      </g>
      <g
         aria-label="TINY"
         style="font-weight:normal;font-size:144px;font-family:Nunito-Regular, Nunito;letter-spacing:-0.26868671;fill:#f70f59"
         id="TINY">
        <path
           d="m 503.056,250.72 q -2.736,0 -4.464,-1.584 -1.584,-1.728 -1.584,-4.464 V 158.56 h -30.96 q -2.592,0 -4.032,-1.296 -1.44,-1.296 -1.44,-3.744 0,-2.448 1.44,-3.744 1.44,-1.296 4.032,-1.296 h 73.872 q 2.592,0 4.032,1.296 1.44,1.296 1.44,3.744 0,2.448 -1.44,3.744 -1.44,1.296 -4.032,1.296 h -30.96 v 86.112 q 0,2.736 -1.584,4.464 -1.584,1.584 -4.32,1.584 z"
           id="path4585"
           inkscape:connector-curvature="0" />
        <path
           d="m 564.22582,250.72 q -2.736,0 -4.32,-1.584 -1.584,-1.728 -1.584,-4.464 v -90.864 q 0,-2.736 1.584,-4.32 1.584,-1.728 4.32,-1.728 2.736,0 4.32,1.728 1.584,1.584 1.584,4.32 v 90.864 q 0,2.736 -1.584,4.464 -1.584,1.584 -4.32,1.584 z"
           id="path4587"
           inkscape:connector-curvature="0" />
        <path
           d="m 670.78487,147.76 q 2.592,0 4.032,1.728 1.44,1.584 1.44,4.32 v 90.864 q 0,2.736 -1.584,4.464 -1.44,1.584 -4.176,1.584 -2.736,0 -4.752,-2.448 l -59.76,-79.92 v 76.32 q 0,2.736 -1.584,4.464 -1.44,1.584 -4.032,1.584 -2.592,0 -4.032,-1.584 -1.44,-1.728 -1.44,-4.464 v -90.864 q 0,-2.736 1.44,-4.32 1.584,-1.728 4.32,-1.728 2.88,0 4.896,2.448 l 59.616,79.92 v -76.32 q 0,-2.736 1.44,-4.32 1.584,-1.728 4.176,-1.728 z"
           id="path4589"
           inkscape:connector-curvature="0" />
        <path
           d="m 764.44469,150.064 q 1.728,-2.16 4.176,-2.16 2.016,0 3.6,1.584 1.584,1.584 1.584,3.888 0,2.16 -1.296,3.6 l -34.992,44.208 v 43.488 q 0,2.88 -1.728,4.464 -1.584,1.584 -4.176,1.584 -2.592,0 -4.32,-1.584 -1.584,-1.584 -1.584,-4.464 V 201.04 l -34.992,-44.064 q -1.44,-1.584 -1.44,-3.6 0,-2.304 1.584,-3.888 1.728,-1.584 3.888,-1.584 2.448,0 4.176,2.16 l 32.832,41.904 z"
           id="path4591"
           inkscape:connector-curvature="0" />
      </g>
    </g>
  </g>
</svg>
