<svg xmlns="http://www.w3.org/2000/svg" xmlns:xlink="http://www.w3.org/1999/xlink" width="757.76" height="285.727" viewBox="0 0 757.75965 285.7269"><defs><linearGradient id="c"><stop offset="0" stop-color="#f8004f" stop-opacity=".326"/><stop offset="1" stop-color="#93002f" stop-opacity=".517"/></linearGradient><linearGradient id="b"><stop offset="0" stop-color="#f8004f" stop-opacity=".184"/><stop offset="1" stop-color="#730025" stop-opacity=".867"/></linearGradient><linearGradient id="a"><stop offset="0" stop-color="#f8004f" stop-opacity="0"/><stop offset="1" stop-color="#ac0038" stop-opacity=".812"/></linearGradient><linearGradient xlink:href="#a" id="f" x1="163.73" y1="-179.486" x2="160.729" y2="122.233" gradientUnits="userSpaceOnUse"/><linearGradient xlink:href="#b" id="e" x1="163.73" y1="-72.433" x2="160.729" y2="229.286" gradientUnits="userSpaceOnUse"/><linearGradient xlink:href="#c" id="d" x1="182.114" y1="-136.259" x2="160.729" y2="334.109" gradientUnits="userSpaceOnUse"/></defs><title>to collect</title><desc>An icon for &amp;quot;collect&amp;quot; from the Lines and Angles series on to [icon]. Downloaded from http://www.toicon.com/icons/lines-and-angles_collect by 213.174.212.158 on 2017-02-28. Licensed CC-BY, see http://toicon.com/license/ for details.</desc><g style="line-height:1.25;-inkscape-font-specification:'Nunito, Bold';font-variant-ligatures:normal;font-variant-caps:normal;font-variant-numeric:normal;font-feature-settings:normal;text-align:start"><path d="M335.806 107.462q-4.433 0-7.093-2.511-2.512-2.66-2.512-6.945v-79.79H299.31q-8.866 0-8.866-7.832 0-7.831 8.866-7.831h72.845q8.866 0 8.866 7.831t-8.866 7.831h-26.892v79.79q0 4.286-2.66 6.946-2.511 2.511-6.796 2.511zm80.942.148q-4.285 0-6.945-2.66-2.512-2.66-2.512-6.944V11.27q0-4.285 2.512-6.797 2.66-2.66 6.945-2.66 4.433 0 6.945 2.66 2.66 2.512 2.66 6.797v86.735q0 4.285-2.66 6.945-2.512 2.66-6.945 2.66zM542.753 1.814q4.137 0 6.501 2.66 2.512 2.512 2.512 6.797v86.735q0 4.285-2.512 6.945t-6.501 2.66q-4.729 0-7.24-3.4L481.58 34.027v63.98q0 4.285-2.364 6.945t-6.502 2.66q-4.137 0-6.501-2.66-2.364-2.66-2.364-6.945V11.27q0-4.285 2.512-6.797 2.512-2.66 6.649-2.66 4.58 0 7.092 3.399l53.785 69.89V11.271q0-4.285 2.364-6.797 2.512-2.66 6.502-2.66zm111.353 3.251q2.66-3.25 6.354-3.25 3.398 0 6.058 2.659 2.66 2.512 2.66 6.058 0 2.955-2.217 5.615l-33.541 40.93v40.929q0 4.58-2.66 7.092-2.66 2.512-6.797 2.512-4.285 0-6.945-2.512t-2.66-7.092v-40.93l-33.54-40.93q-2.217-2.659-2.217-5.614 0-3.546 2.66-6.058 2.66-2.66 6.058-2.66 3.694 0 6.353 3.25l30.291 37.532z" style="-inkscape-font-specification:'Nunito, Bold';font-variant-ligatures:normal;font-variant-caps:normal;font-variant-numeric:normal;font-feature-settings:normal;text-align:start" font-weight="700" font-size="147.76" font-family="Nunito" letter-spacing="15" word-spacing="0" fill="#7b0c2f" fill-opacity=".992"/></g><g style="line-height:1.25;-inkscape-font-specification:'Nunito, Semi-Bold';font-variant-ligatures:normal;font-variant-caps:normal;font-variant-numeric:normal;font-feature-settings:normal;text-align:start" font-weight="600" font-size="188.56" font-family="Nunito" letter-spacing="0" word-spacing="0" fill="#7b0c2f" fill-opacity=".992" stroke-width="35.354"><path d="M336.35 284.937q-4.338 0-7.166-2.64-2.64-2.828-2.64-7.165V167.276h-37.712q-9.05 0-9.05-8.108 0-3.96 2.262-6.034 2.451-2.074 6.788-2.074h95.034q4.337 0 6.6 2.074 2.451 2.074 2.451 6.034 0 8.108-9.05 8.108h-37.713v107.856q0 4.337-2.64 7.165-2.64 2.64-7.165 2.64zm118.088-24.136q2.64 0 4.336 2.075 1.697 2.074 1.697 5.28 0 5.468-6.788 9.239-6.6 3.77-14.519 5.845-7.73 2.074-14.896 2.074-21.873 0-34.507-12.633-12.633-12.822-12.633-34.884 0-14.142 5.468-25.078 5.657-10.937 15.65-16.97 10.183-6.035 23.005-6.035 18.479 0 29.227 11.88 10.748 11.879 10.748 32.055 0 7.542-6.788 7.542h-58.266q1.886 29.227 28.096 29.227 6.977 0 12.068-1.886 5.09-1.885 10.748-4.902.565-.377 3.017-1.509 2.64-1.32 4.337-1.32zm-32.81-57.133q-10.936 0-17.536 6.976-6.6 6.977-7.92 19.61h48.649q-.566-12.821-6.6-19.61-5.845-6.976-16.593-6.976z" style="-inkscape-font-specification:'Nunito, Semi-Bold';font-variant-ligatures:normal;font-variant-caps:normal;font-variant-numeric:normal;font-feature-settings:normal;text-align:start" letter-spacing="-10"/><path d="M520.483 190.091q9.051-.565 9.051 7.731 0 4.149-2.074 6.223t-7.165 2.451l-5.657.566q-11.88 1.131-17.725 8.296-5.657 7.166-5.657 17.348v43.18q0 4.526-2.64 6.788-2.64 2.263-6.788 2.263t-6.976-2.263q-2.64-2.262-2.64-6.788v-76.744q0-4.337 2.64-6.6 2.828-2.45 6.976-2.45 3.772 0 6.223 2.45 2.64 2.263 2.64 6.412v9.05q3.77-8.296 10.936-12.633 7.165-4.337 16.216-5.091z" style="-inkscape-font-specification:'Nunito, Semi-Bold';font-variant-ligatures:normal;font-variant-caps:normal;font-variant-numeric:normal;font-feature-settings:normal;text-align:start" letter-spacing="-5"/><path d="M641.674 189.714q30.924 0 30.924 37.147v49.025q0 4.337-2.64 6.788-2.64 2.263-6.977 2.263-4.148 0-6.788-2.263-2.64-2.45-2.64-6.788V227.05q0-11.502-4.148-16.593-4.148-5.28-13.01-5.28-10.371 0-16.405 7.166-6.034 6.976-6.034 19.233v44.311q0 4.337-2.64 6.788-2.64 2.263-6.977 2.263-4.148 0-6.788-2.263-2.64-2.45-2.64-6.788V227.05q0-11.502-4.148-16.593-4.149-5.28-13.01-5.28-10.372 0-16.594 7.166-6.034 6.976-6.034 19.233v44.311q0 4.337-2.64 6.788-2.64 2.263-6.788 2.263t-6.977-2.263q-2.64-2.45-2.64-6.788v-76.744q0-4.148 2.829-6.6 2.828-2.45 6.788-2.45 3.96 0 6.411 2.45 2.64 2.263 2.64 6.412v6.976q4.148-7.919 11.502-12.067 7.354-4.149 16.97-4.149 10.56 0 17.348 4.337 6.977 4.337 10.37 13.388 4.15-8.108 12.257-12.822 8.108-4.903 18.479-4.903zm78.374 95.6q-19.233 0-31.49-7.92-3.394-2.073-4.902-4.336-1.32-2.263-1.32-5.091 0-3.017 1.697-5.091 1.697-2.075 4.337-2.075 2.45 0 7.73 3.017 5.657 3.017 10.937 4.903 5.468 1.886 13.576 1.886 9.051 0 14.142-3.206 5.091-3.205 5.091-9.05 0-3.772-2.074-6.035-1.885-2.262-6.788-3.96-4.902-1.885-14.519-3.96-16.593-3.582-23.947-9.616-7.165-6.222-7.165-16.782 0-8.108 4.714-14.519 4.714-6.6 13.01-10.182 8.297-3.583 18.856-3.583 7.543 0 14.708 2.074 7.165 1.886 12.633 5.657 6.223 4.149 6.223 9.617 0 3.017-1.886 5.091-1.697 2.074-4.148 2.074-1.697 0-3.394-.754t-4.526-2.451q-5.09-3.017-9.616-4.714-4.337-1.697-10.937-1.697-7.92 0-12.822 3.394-4.714 3.394-4.714 9.24 0 5.279 4.337 8.296 4.526 2.828 16.782 5.468 12.634 2.64 19.799 6.034 7.165 3.394 10.182 8.485 3.206 4.903 3.206 12.634 0 12.256-10.371 19.798-10.182 7.354-27.341 7.354z" style="-inkscape-font-specification:'Nunito, Semi-Bold';font-variant-ligatures:normal;font-variant-caps:normal;font-variant-numeric:normal;font-feature-settings:normal;text-align:start" letter-spacing="-10.5"/></g><g stroke="#7a0b2e" stroke-opacity=".996"><path fill="url(#d)" stroke-width="16.268" stroke-linecap="round" stroke-linejoin="round" stroke-miterlimit="0" d="M37.14 31.918h249.233v81.356H37.14z" transform="translate(-26.011 -21.329) scale(.89675)"/><path d="M143.675 13.282V79.43" fill="none" stroke-width="14.587"/></g><g stroke="#7a0b2e" stroke-opacity=".996"><path fill="url(#e)" stroke-width="16.268" stroke-linecap="round" stroke-linejoin="round" stroke-miterlimit="0" d="M37.14 31.918h249.233v81.356H37.14z" transform="translate(-26.011 79.167) scale(.89675)"/><path d="M143.675 113.778v66.147" fill="none" stroke-width="14.587"/></g><g stroke="#7a0b2e" stroke-opacity=".996"><path fill="url(#f)" stroke-width="16.268" stroke-linecap="round" stroke-linejoin="round" stroke-miterlimit="0" d="M37.14 31.918h249.233v81.356H37.14z" transform="translate(-26.011 176.854) scale(.89675)"/><path d="M143.675 211.465v66.147" fill="none" stroke-width="14.587"/></g><path d="M108.749 43.772H42.602m66.147 100.496H42.602m66.147 97.687H42.602" fill="none" stroke="#7a0b2e" stroke-width="14.588" stroke-linecap="round" stroke-linejoin="round" stroke-opacity=".996"/></svg>