<svg xmlns="http://www.w3.org/2000/svg" width="797.76" height="286.967" viewBox="0 0 797.75989 286.96661"><title>Group 3</title><defs><linearGradient x1="79.734" y1="-309.987" x2="67.346" y2="524.714" id="a" gradientTransform="scale(1.64913 .60638)" gradientUnits="userSpaceOnUse"><stop stop-color="#F8004F" stop-opacity=".326" offset="0%"/><stop stop-color="#F8004F" stop-opacity=".23" offset="100%"/></linearGradient><linearGradient x1="69.085" y1="-195.905" x2="67.346" y2="339.516" id="b" gradientTransform="scale(1.64913 .60638)" gradientUnits="userSpaceOnUse"><stop stop-color="#F8004F" stop-opacity=".184" offset="0%"/><stop stop-color="#F8004F" stop-opacity=".69" offset="100%"/></linearGradient><linearGradient x1="69.085" y1="-386.394" x2="67.346" y2="149.027" id="c" gradientTransform="scale(1.64913 .60638)" gradientUnits="userSpaceOnUse"><stop stop-color="#F8004F" stop-opacity="0" offset="0%"/><stop stop-color="#F8004F" stop-opacity=".582" offset="100%"/></linearGradient></defs><g fill="none" fill-rule="evenodd"><path d="M376.35 284.177c-2.892 0-5.28-.88-7.166-2.64-1.76-1.885-2.64-4.274-2.64-7.165V166.516h-37.712c-6.033 0-9.05-2.703-9.05-8.108 0-2.64.754-4.651 2.262-6.034 1.634-1.383 3.897-2.074 6.788-2.074h95.034c2.891 0 5.091.691 6.6 2.074 1.634 1.383 2.45 3.394 2.45 6.034 0 5.405-3.016 8.108-9.05 8.108h-37.712v107.856c0 2.891-.88 5.28-2.64 7.165-1.76 1.76-4.148 2.64-7.165 2.64zm118.088-24.136c1.76 0 3.205.692 4.336 2.075 1.131 1.383 1.697 3.143 1.697 5.28 0 3.645-2.263 6.725-6.788 9.239-4.4 2.513-9.24 4.462-14.52 5.845-5.152 1.383-10.118 2.074-14.895 2.074-14.582 0-26.084-4.211-34.507-12.633-8.422-8.548-12.633-20.176-12.633-34.884 0-9.428 1.823-17.787 5.468-25.078 3.771-7.291 8.988-12.948 15.65-16.97 6.789-4.023 14.457-6.035 23.005-6.035 12.32 0 22.062 3.96 29.227 11.88 7.165 7.92 10.748 18.604 10.748 32.055 0 5.028-2.263 7.542-6.788 7.542h-58.266c1.257 19.485 10.623 29.227 28.096 29.227 4.651 0 8.674-.629 12.068-1.886 3.393-1.257 6.976-2.89 10.748-4.902.377-.251 1.382-.754 3.017-1.509 1.76-.88 3.206-1.32 4.337-1.32zm-32.81-57.133c-7.29 0-13.136 2.325-17.536 6.976-4.4 4.651-7.04 11.188-7.92 19.61h48.649c-.377-8.547-2.577-15.084-6.6-19.61-3.897-4.65-9.428-6.976-16.593-6.976zm98.855-13.577c6.034-.377 9.05 2.2 9.05 7.731 0 2.766-.69 4.84-2.073 6.223s-3.771 2.2-7.165 2.451l-5.657.566c-7.92.754-13.828 3.52-17.725 8.296-3.771 4.777-5.657 10.56-5.657 17.348v43.18c0 3.017-.88 5.28-2.64 6.788-1.76 1.509-4.023 2.263-6.788 2.263-2.765 0-5.09-.754-6.976-2.263-1.76-1.508-2.64-3.77-2.64-6.788v-76.744c0-2.891.88-5.091 2.64-6.6 1.885-1.633 4.21-2.45 6.976-2.45 2.515 0 4.589.817 6.223 2.45 1.76 1.509 2.64 3.646 2.64 6.412v9.05c2.513-5.53 6.159-9.742 10.936-12.633 4.777-2.891 10.182-4.588 16.216-5.091zm121.191-.377c20.616 0 30.924 12.382 30.924 37.147v49.025c0 2.891-.88 5.154-2.64 6.788-1.76 1.509-4.086 2.263-6.977 2.263-2.765 0-5.028-.754-6.788-2.263-1.76-1.633-2.64-3.896-2.64-6.788V226.29c0-7.668-1.383-13.199-4.148-16.593-2.765-3.52-7.102-5.28-13.01-5.28-6.914 0-12.382 2.389-16.405 7.166-4.023 4.65-6.034 11.062-6.034 19.233v44.311c0 2.891-.88 5.154-2.64 6.788-1.76 1.509-4.086 2.263-6.977 2.263-2.765 0-5.028-.754-6.788-2.263-1.76-1.633-2.64-3.896-2.64-6.788V226.29c0-7.668-1.383-13.199-4.148-16.593-2.766-3.52-7.103-5.28-13.01-5.28-6.915 0-12.446 2.389-16.594 7.166-4.023 4.65-6.034 11.062-6.034 19.233v44.311c0 2.891-.88 5.154-2.64 6.788-1.76 1.509-4.023 2.263-6.788 2.263-2.765 0-5.091-.754-6.977-2.263-1.76-1.633-2.64-3.896-2.64-6.788v-76.744c0-2.765.943-4.965 2.829-6.6 1.885-1.633 4.148-2.45 6.788-2.45 2.64 0 4.777.817 6.41 2.45 1.76 1.509 2.64 3.646 2.64 6.412v6.976c2.766-5.28 6.6-9.302 11.503-12.067 4.903-2.766 10.56-4.149 16.97-4.149 7.04 0 12.823 1.446 17.348 4.337 4.651 2.891 8.108 7.354 10.37 13.388 2.767-5.405 6.852-9.68 12.257-12.822 5.405-3.269 11.565-4.903 18.479-4.903zm78.374 95.6c-12.822 0-23.319-2.64-31.49-7.92-2.263-1.382-3.897-2.827-4.902-4.336-.88-1.509-1.32-3.206-1.32-5.091 0-2.011.566-3.708 1.697-5.091 1.131-1.383 2.577-2.075 4.337-2.075 1.633 0 4.21 1.006 7.73 3.017 3.771 2.011 7.417 3.646 10.937 4.903 3.645 1.257 8.17 1.886 13.576 1.886 6.034 0 10.748-1.069 14.142-3.206s5.09-5.153 5.09-9.05c0-2.515-.69-4.526-2.073-6.035-1.257-1.508-3.52-2.828-6.788-3.96-3.268-1.257-8.108-2.577-14.52-3.96-11.061-2.388-19.043-5.593-23.946-9.616-4.777-4.148-7.165-9.742-7.165-16.782 0-5.405 1.571-10.245 4.714-14.519 3.143-4.4 7.48-7.794 13.01-10.182 5.531-2.389 11.817-3.583 18.856-3.583 5.029 0 9.931.691 14.708 2.074 4.777 1.257 8.988 3.143 12.633 5.657 4.149 2.766 6.223 5.972 6.223 9.617 0 2.011-.629 3.708-1.886 5.091-1.131 1.383-2.514 2.074-4.148 2.074-1.131 0-2.263-.251-3.394-.754-1.131-.503-2.64-1.32-4.526-2.451-3.393-2.011-6.599-3.583-9.616-4.714-2.891-1.131-6.537-1.697-10.937-1.697-5.28 0-9.554 1.131-12.822 3.394-3.143 2.263-4.714 5.343-4.714 9.24 0 3.52 1.446 6.285 4.337 8.296 3.017 1.885 8.611 3.708 16.782 5.468 8.423 1.76 15.022 3.771 19.799 6.034 4.777 2.263 8.17 5.091 10.182 8.485 2.137 3.269 3.206 7.48 3.206 12.634 0 8.17-3.457 14.77-10.371 19.798-6.788 4.903-15.902 7.354-27.341 7.354z" fill="#f7004f" fill-opacity=".941" fill-rule="nonzero"/><path fill="url(#a)" fill-rule="nonzero" stroke="#f8004f" stroke-width="14.588" stroke-linecap="round" stroke-linejoin="round" d="M223.794 73.25H.294V.292h223.5z" transform="translate(7 8.24)"/><path d="M143.675 14.522V80.67" stroke="#f9004f" stroke-width="14.587"/><path fill="url(#b)" fill-rule="nonzero" stroke="#f8004f" stroke-width="14.588" stroke-linecap="round" stroke-linejoin="round" d="M223.794 73.745H.294V.79h223.5z" transform="translate(7 108.24)"/><path d="M143.675 115.018v66.147" stroke="#f9004f" stroke-width="14.587"/><path fill="url(#c)" fill-rule="nonzero" stroke="#f8004f" stroke-width="14.588" stroke-linecap="round" stroke-linejoin="round" d="M223.794 73.432H.294V.476h223.5z" transform="translate(7 206.24)"/><path d="M143.675 212.705v66.147" stroke="#f9004f" stroke-width="14.587"/><path d="M108.749 45.012H42.602m66.147 100.496H42.602m66.147 97.687H42.602" stroke="#f9004f" stroke-width="14.588" stroke-linecap="round" stroke-linejoin="round" stroke-opacity=".941"/><path d="M377.056 102.96q-2.736 0-4.464-1.584-1.584-1.728-1.584-4.464V10.8h-30.96q-2.592 0-4.032-1.296t-1.44-3.744q0-2.448 1.44-3.744Q337.456.72 340.048.72h73.872q2.592 0 4.032 1.296t1.44 3.744q0 2.448-1.44 3.744-1.44 1.296-4.032 1.296h-30.96v86.112q0 2.736-1.584 4.464-1.584 1.584-4.32 1.584zm61.17 0q-2.736 0-4.32-1.584-1.584-1.728-1.584-4.464V6.048q0-2.736 1.584-4.32Q435.49 0 438.226 0t4.32 1.728q1.584 1.584 1.584 4.32v90.864q0 2.736-1.584 4.464-1.584 1.584-4.32 1.584zM544.785 0q2.592 0 4.032 1.728 1.44 1.584 1.44 4.32v90.864q0 2.736-1.584 4.464-1.44 1.584-4.176 1.584t-4.752-2.448l-59.76-79.92v76.32q0 2.736-1.584 4.464-1.44 1.584-4.032 1.584t-4.032-1.584q-1.44-1.728-1.44-4.464V6.048q0-2.736 1.44-4.32Q471.92 0 474.657 0q2.88 0 4.896 2.448l59.616 79.92V6.048q0-2.736 1.44-4.32Q542.193 0 544.785 0zm93.66 2.304q1.728-2.16 4.176-2.16 2.016 0 3.6 1.584t1.584 3.888q0 2.16-1.296 3.6l-34.992 44.208v43.488q0 2.88-1.728 4.464-1.584 1.584-4.176 1.584t-4.32-1.584q-1.584-1.584-1.584-4.464V53.28L564.717 9.216q-1.44-1.584-1.44-3.6 0-2.304 1.584-3.888 1.728-1.584 3.888-1.584 2.448 0 4.176 2.16l32.832 41.904z" font-weight="400" font-size="144" font-family="Nunito-Regular,Nunito" letter-spacing="-.269" fill="#f70f59"/></g></svg>