<svg xmlns="http://www.w3.org/2000/svg" width="895" height="494" viewBox="0 0 895 494"><title>Group 3</title><defs><linearGradient x1="58.168%" y1="-206.717%" x2="49.588%" y2="371.443%" id="a"><stop stop-color="#F8004F" stop-opacity=".326" offset="0%"/><stop stop-color="#F8004F" stop-opacity=".23" offset="100%"/></linearGradient><linearGradient x1="50.792%" y1="-128.265%" x2="49.588%" y2="242.598%" id="b"><stop stop-color="#F8004F" stop-opacity=".184" offset="0%"/><stop stop-color="#F8004F" stop-opacity=".69" offset="100%"/></linearGradient><linearGradient x1="50.792%" y1="-259.851%" x2="49.588%" y2="111.012%" id="c"><stop stop-color="#F8004F" stop-opacity="0" offset="0%"/><stop stop-color="#F8004F" stop-opacity=".582" offset="100%"/></linearGradient></defs><g fill="none" fill-rule="evenodd"><path d="M376.794 283.797l-2.194-4.307-4.307 2.194 2.194 4.307 4.307-2.194zm-14.427-49.608l-47.372 24.138 18.652 36.605 4.306-2.194 2.422-7.453c.665-2.048 3.473-2.27 4.451-.35l6.129 12.027a4.832 4.832 0 0 0 6.5 2.112l8.614-4.388 1.097 2.153 15.073-7.68a4.832 4.832 0 0 0 2.112-6.5l-8.777-17.227 2.153-1.097a4.832 4.832 0 0 0 2.112-6.5l-10.971-21.533a4.832 4.832 0 0 0-6.501-2.113zm2.194 4.307l10.972 21.533-6.46 3.291 10.971 21.533-10.766 5.485-18.651-36.605-4.307 2.194 4.389 8.613-4.307 2.194 2.194 4.307 4.307-2.194 2.194 4.306-4.306 2.195 2.194 4.306 4.306-2.194 2.195 4.306-4.307 2.195 2.194 4.306 4.307-2.194 2.194 4.306-8.613 4.389-6.128-12.028a7.23 7.23 0 0 0-7.03-3.937 7.227 7.227 0 0 0-6.325 4.986l-.928 2.86-13.354-26.21 43.065-21.943zm-2.112 6.5l2.194 4.307-4.306 2.195-2.195-4.307 4.307-2.194zm4.389 8.614l2.194 4.306-4.307 2.195-2.194-4.307 4.307-2.194z" fill-rule="nonzero" fill="#fff"/><path d="M339.392 386.522s92.702-21.479-17.22-58.406" stroke="#fff" stroke-width="4" stroke-dasharray="8,7"/><path d="M473.35 434.937c-2.892 0-5.28-.88-7.166-2.64-1.76-1.885-2.64-4.274-2.64-7.165V317.276h-37.712c-6.033 0-9.05-2.703-9.05-8.108 0-2.64.754-4.651 2.262-6.034 1.634-1.383 3.897-2.074 6.788-2.074h95.034c2.891 0 5.091.691 6.6 2.074 1.634 1.383 2.451 3.394 2.451 6.034 0 5.405-3.017 8.108-9.05 8.108h-37.713v107.856c0 2.891-.88 5.28-2.64 7.165-1.76 1.76-4.148 2.64-7.165 2.64h.001zm118.088-24.136c1.76 0 3.205.692 4.336 2.075 1.131 1.383 1.697 3.143 1.697 5.28 0 3.645-2.263 6.725-6.788 9.239-4.4 2.513-9.24 4.462-14.519 5.845-5.153 1.383-10.119 2.074-14.896 2.074-14.582 0-26.084-4.211-34.507-12.633-8.422-8.548-12.633-20.176-12.633-34.884 0-9.428 1.823-17.787 5.468-25.078 3.771-7.291 8.988-12.948 15.65-16.97 6.789-4.023 14.457-6.035 23.005-6.035 12.32 0 22.062 3.96 29.227 11.88 7.165 7.92 10.748 18.604 10.748 32.055 0 5.028-2.263 7.542-6.788 7.542h-58.266c1.257 19.485 10.623 29.227 28.096 29.227 4.651 0 8.674-.629 12.068-1.886 3.393-1.257 6.976-2.89 10.748-4.902.377-.251 1.382-.754 3.017-1.509 1.76-.88 3.206-1.32 4.337-1.32zm-32.81-57.133c-7.29 0-13.136 2.325-17.536 6.976-4.4 4.651-7.04 11.188-7.92 19.61h48.649c-.377-8.547-2.577-15.084-6.6-19.61-3.897-4.65-9.428-6.976-16.593-6.976zm98.855-13.577c6.034-.377 9.051 2.2 9.051 7.731 0 2.766-.691 4.84-2.074 6.223s-3.771 2.2-7.165 2.451l-5.657.566c-7.92.754-13.828 3.52-17.725 8.296-3.771 4.777-5.657 10.56-5.657 17.348v43.18c0 3.017-.88 5.28-2.64 6.788-1.76 1.509-4.023 2.263-6.788 2.263-2.765 0-5.09-.754-6.976-2.263-1.76-1.508-2.64-3.77-2.64-6.788v-76.744c0-2.891.88-5.091 2.64-6.6 1.885-1.633 4.21-2.45 6.976-2.45 2.515 0 4.589.817 6.223 2.45 1.76 1.509 2.64 3.646 2.64 6.412v9.05c2.513-5.53 6.159-9.742 10.936-12.633 4.777-2.891 10.182-4.588 16.216-5.091l2.64-.189zm121.191-.377c20.616 0 30.924 12.382 30.924 37.147v49.025c0 2.891-.88 5.154-2.64 6.788-1.76 1.509-4.086 2.263-6.977 2.263-2.765 0-5.028-.754-6.788-2.263-1.76-1.633-2.64-3.896-2.64-6.788V377.05c0-7.668-1.383-13.199-4.148-16.593-2.765-3.52-7.102-5.28-13.01-5.28-6.914 0-12.382 2.389-16.405 7.166-4.023 4.65-6.034 11.062-6.034 19.233v44.311c0 2.891-.88 5.154-2.64 6.788-1.76 1.509-4.086 2.263-6.977 2.263-2.765 0-5.028-.754-6.788-2.263-1.76-1.633-2.64-3.896-2.64-6.788V377.05c0-7.668-1.383-13.199-4.148-16.593-2.766-3.52-7.103-5.28-13.01-5.28-6.915 0-12.446 2.389-16.594 7.166-4.023 4.65-6.034 11.062-6.034 19.233v44.311c0 2.891-.88 5.154-2.64 6.788-1.76 1.509-4.023 2.263-6.788 2.263-2.765 0-5.091-.754-6.977-2.263-1.76-1.633-2.64-3.896-2.64-6.788v-76.744c0-2.765.943-4.965 2.829-6.6 1.885-1.633 4.148-2.45 6.788-2.45 2.64 0 4.777.817 6.411 2.45 1.76 1.509 2.64 3.646 2.64 6.412v6.976c2.765-5.28 6.6-9.302 11.502-12.067 4.903-2.766 10.56-4.149 16.97-4.149 7.04 0 12.823 1.446 17.348 4.337 4.651 2.891 8.108 7.354 10.37 13.388 2.767-5.405 6.852-9.68 12.257-12.822 5.405-3.269 11.565-4.903 18.479-4.903v-.001zm78.374 95.6c-12.822 0-23.319-2.64-31.49-7.92-2.263-1.382-3.897-2.827-4.902-4.336-.88-1.509-1.32-3.206-1.32-5.091 0-2.011.566-3.708 1.697-5.091 1.131-1.383 2.577-2.075 4.337-2.075 1.633 0 4.21 1.006 7.73 3.017 3.771 2.011 7.417 3.646 10.937 4.903 3.645 1.257 8.17 1.886 13.576 1.886 6.034 0 10.748-1.069 14.142-3.206s5.091-5.153 5.091-9.05c0-2.515-.691-4.526-2.074-6.035-1.257-1.508-3.52-2.828-6.788-3.96-3.268-1.257-8.108-2.577-14.519-3.96-11.062-2.388-19.044-5.593-23.947-9.616-4.777-4.148-7.165-9.742-7.165-16.782 0-5.405 1.571-10.245 4.714-14.519 3.143-4.4 7.48-7.794 13.01-10.182 5.531-2.389 11.817-3.583 18.856-3.583 5.029 0 9.931.691 14.708 2.074 4.777 1.257 8.988 3.143 12.633 5.657 4.149 2.766 6.223 5.972 6.223 9.617 0 2.011-.629 3.708-1.886 5.091-1.131 1.383-2.514 2.074-4.148 2.074-1.131 0-2.263-.251-3.394-.754-1.131-.503-2.64-1.32-4.526-2.451-3.393-2.011-6.599-3.583-9.616-4.714-2.891-1.131-6.537-1.697-10.937-1.697-5.28 0-9.554 1.131-12.822 3.394-3.143 2.263-4.714 5.343-4.714 9.24 0 3.52 1.446 6.285 4.337 8.296 3.017 1.885 8.611 3.708 16.782 5.468 8.423 1.76 15.022 3.771 19.799 6.034 4.777 2.263 8.17 5.091 10.182 8.485 2.137 3.269 3.206 7.48 3.206 12.634 0 8.17-3.457 14.77-10.371 19.798-6.788 4.903-15.902 7.354-27.341 7.354z" fill-rule="nonzero" fill="#eca90b"/><g stroke="#eca90b" stroke-opacity=".992"><path stroke-width="14.588" stroke-linecap="round" stroke-linejoin="round" fill="url(#a)" fill-rule="nonzero" d="M.294.293h223.5V73.25H.294z" transform="translate(104 159)"/><path d="M240.675 165.282v66.148" stroke-width="14.587"/></g><g stroke="#eca90b" stroke-opacity=".992"><path stroke-width="14.588" stroke-linecap="round" stroke-linejoin="round" fill="url(#b)" fill-rule="nonzero" d="M.294.79h223.5v72.955H.294z" transform="translate(104 259)"/><path d="M240.675 265.778v66.147" stroke-width="14.587"/></g><g stroke="#eca90b" stroke-opacity=".992"><path stroke-width="14.588" stroke-linecap="round" stroke-linejoin="round" fill="url(#c)" fill-rule="nonzero" d="M.294.476h223.5v72.956H.294z" transform="translate(104 357)"/><path d="M240.675 363.465v66.147" stroke-width="14.587"/></g><path d="M205.749 195.772h-66.147m66.147 100.496h-66.147m66.147 97.687h-66.147" stroke-opacity=".992" stroke="#eca90b" stroke-width="14.588" stroke-linecap="round" stroke-linejoin="round"/><path d="M45.758 237.865l-2.507-3.86c-3.422-5.27-9.901-7.305-15.609-5.393l-.26-.4 8.517-5.53-3.677-5.66-22.708 14.747 3.676 5.66 8.516-5.53.259.4c-4.068 4.436-4.845 11.182-1.422 16.453l2.507 3.86L.51 273.835l11.029 16.983 25.547-16.59 15.554 15.25-2.687 4.563 3.676 5.66 5.678-3.686 2.838-1.843 5.677-3.687 2.839-1.843 5.677-3.687-3.676-5.661-5.261.6-7.606-20.414 25.547-16.59-11.03-16.983-28.554 11.96zM13.54 281.47l-4.285-6.598 17.53-16.507 6.625 10.201-19.87 12.904zm48.892 4.467l-2.246 1.458-17.827-17.477-14.301-22.022-1.838-2.83c-2.028-3.122-1.13-7.315 2-9.348 3.132-2.033 7.327-1.148 9.354 1.974l1.838 2.83 14.301 22.022 8.719 23.393zm13.556-45.022l-19.87 12.904-6.624-10.201 22.21-9.3 4.284 6.597z" fill-rule="nonzero" fill="#fff"/><g transform="translate(96 3)"><ellipse stroke="#fff" stroke-width="5" cx="19" cy="21.551" rx="19" ry="21.551"/><path d="M19 46.307v29.264" stroke="#fff" stroke-width="5" stroke-linecap="square"/><path fill="#fff" d="M19.493 40.651l9.23 10.934h-18.46z"/></g><path d="M216.071 102.44h4.715v4.72h-4.715v-4.72zm7.072 4.72h4.714v-4.72h-4.714v4.72zM242 111.88v2.36c0 5.213-4.222 9.44-9.429 9.44h-7.495l-4.29 21.474v2.126h2.357V152h-7.072v-7.08l1.867-9.44h-2.527l-3.929 11.8h2.232V152h-7.071v-5.102l3.802-11.418h-15.588v11.8h2.357V152h-7.071v-16.52h-4.714v11.8h2.357V152h-7.072v-40.12a2.36 2.36 0 0 0-2.357-2.36H176v-4.72h2.357a7.076 7.076 0 0 1 7.072 7.08v2.36h16.5v-1.451c0-.6.115-1.197.337-1.754l4.377-10.955c0-3.91 3.166-7.08 7.071-7.08h14.143a7.076 7.076 0 0 1 7.072 7.08v7.08h2.357a4.716 4.716 0 0 1 4.714 4.72zm-30.643.909l-2.357-5.9-2.357 5.9v3.811h4.714v-3.811zm8.938 10.728l-7.408-2.473c-.48.167-.99.276-1.53.276h-4.714c-1.74 0-3.244-.956-4.062-2.36H185.43v11.8h33.443l1.423-7.243zm14.634-11.637a4.716 4.716 0 0 1-4.715-4.72v-7.08a2.36 2.36 0 0 0-2.357-2.36h-14.143a2.362 2.362 0 0 0-2.357 2.36l4.377 10.955c.222.56.337 1.154.337 1.754v3.811c0 .177-.033.342-.051.514l5.532 1.846h11.02c2.6 0 4.714-2.117 4.714-4.72l-2.357-2.36z" fill-rule="nonzero" fill="#fff"/><path d="M71 297s93.29 135.063 263.805 92.826" stroke="#fff" stroke-width="4" stroke-dasharray="8,7"/><path d="M53.286 480.818v5.608L85 436.335l31.714 50.09v-5.607H122V494H94.076l-3.537-5.876A55.2 55.2 0 0 1 85 475.656a55.213 55.213 0 0 1-5.54 12.468L75.925 494H48v-13.182h5.286zm41.786 4.593l1.995 3.316h14.853l-24.277-38.343v11.763l.957 5.727a49.822 49.822 0 0 0 6.472 17.537zm-22.14 3.316l1.996-3.316a49.828 49.828 0 0 0 6.472-17.535l.957-5.729v-11.763L58.08 488.727h14.853zM359.967 132.73l.434 14.945-5.544-2.018-.39-13.44c1.863.262 3.698.427 5.5.514zm-16.102-2.924l-1.732 11.22 5.251 1.911 1.8-11.67c-1.762-.399-3.54-.905-5.32-1.461zm-17.176 5.599l5.251 1.911 5.886-9.708c-1.724-.719-3.408-1.473-5.016-2.301l-6.121 10.098zm-13.017-4.738l5.544 2.018 8.938-10.045a60.116 60.116 0 0 1-4.543-3.142l-9.939 11.169zm72.61-14.67c-4.169 11.453-23.682 14.865-43.585 7.621-19.902-7.244-32.657-22.4-28.489-33.853 2.995-8.227 13.917-12.286 27.208-11.241 5.392-3.057 12.008-3.84 18.263-1.563 6.263 2.279 10.833 7.142 12.993 12.957 10.836 7.742 16.602 17.858 13.61 26.08zm-49.545-24.056c.07 1.887 4.604 7.7 13.508 10.94 8.903 3.241 16.113 1.703 17.38.303 3.027-8.541-1.361-17.956-9.833-21.04-8.47-3.083-17.884 1.308-21.055 9.797zm44.396 22.183c1.551-4.261-1.086-10.35-7.09-16.008a22.125 22.125 0 0 1-1.319 7.076c-1.847 5.076-12.994 7.013-24.366 2.874-11.372-4.14-18.666-12.788-16.819-17.864a22.137 22.137 0 0 1 3.548-6.279c-8.247.474-14.179 3.452-15.73 7.716-2.678 7.356 7.024 20.17 25.227 26.795 18.204 6.626 33.872 3.046 36.55-4.31zm-334.184 331C55.317 444.723 62 437.772 62 429.286c0-4.779-2.167-9.197-5.708-12.15.288-1.205.435-2.447.435-3.707a15.816 15.816 0 0 0-8.26-13.897C46.942 392.378 40.586 387 33 387c-7.585 0-13.941 5.378-15.468 12.532a15.82 15.82 0 0 0-8.26 13.897c0 1.26.148 2.502.436 3.708C6.168 420.089 4 424.507 4 429.286c0 8.486 6.683 15.437 15.051 15.838a21.08 21.08 0 0 0 8.676 4.615v.69c0 2.92-2.36 5.285-5.272 5.285h-5.273V461h31.636v-5.286h-5.273a5.278 5.278 0 0 1-5.272-5.285v-.69a21.08 21.08 0 0 0 8.676-4.615zm-25.834-5.399c-.43.056-.854.132-1.297.132-5.824 0-10.545-4.733-10.545-10.571 0-4.615 2.968-8.497 7.078-9.94a10.546 10.546 0 0 1-1.806-5.917c0-4.935 3.386-9.044 7.946-10.21-.213-6.258 4.772-10.933 10.509-10.933 5.729 0 10.722 4.672 10.509 10.933 4.56 1.166 7.946 5.275 7.946 10.21 0 2.193-.667 4.228-1.806 5.917 4.11 1.443 7.078 5.325 7.078 9.94 0 5.838-4.721 10.571-10.545 10.571-.443 0-.868-.076-1.297-.132-2.898 3.314-7.142 5.418-11.885 5.418-4.743 0-8.985-2.104-11.885-5.418zm326.655 11.89l17.23-7.384L372.385 427l7.384 17.23L397 451.616 379.77 459l-7.385 17.23L365 459l-17.23-7.385zm20.979 3.636l.775 1.81 2.86 6.673 2.86-6.674.776-1.809 1.81-.775 6.673-2.86-6.673-2.86-1.81-.776-.775-1.81-2.86-6.673-2.86 6.673-.776 1.81-1.81.775-6.673 2.86 6.674 2.86 1.809.776zm-23.441 11.134l6.154-12.308 6.153 12.308 12.308 6.153-12.308 6.154L351.462 491l-6.154-12.308L333 472.538l12.308-6.153zm2.2 7.904l1.467.733.734 1.467 1.753 3.503 1.75-3.5.733-1.467 1.467-.734 3.503-1.753-3.5-1.75-1.467-.733-.734-1.467-1.75-3.5-1.75 3.5-.734 1.467-1.467.733-3.5 1.75 3.495 1.75z" fill-rule="nonzero" fill="#fff"/><path d="M474.056 253.72q-2.736 0-4.464-1.584-1.584-1.728-1.584-4.464V161.56h-30.96q-2.592 0-4.032-1.296t-1.44-3.744q0-2.448 1.44-3.744 1.44-1.296 4.032-1.296h73.872q2.592 0 4.032 1.296t1.44 3.744q0 2.448-1.44 3.744-1.44 1.296-4.032 1.296h-30.96v86.112q0 2.736-1.584 4.464-1.584 1.584-4.32 1.584zm61.17 0q-2.736 0-4.32-1.584-1.584-1.728-1.584-4.464v-90.864q0-2.736 1.584-4.32 1.584-1.728 4.32-1.728t4.32 1.728q1.584 1.584 1.584 4.32v90.864q0 2.736-1.584 4.464-1.584 1.584-4.32 1.584zm106.559-102.96q2.592 0 4.032 1.728 1.44 1.584 1.44 4.32v90.864q0 2.736-1.584 4.464-1.44 1.584-4.176 1.584t-4.752-2.448l-59.76-79.92v76.32q0 2.736-1.584 4.464-1.44 1.584-4.032 1.584t-4.032-1.584q-1.44-1.728-1.44-4.464v-90.864q0-2.736 1.44-4.32 1.584-1.728 4.32-1.728 2.88 0 4.896 2.448l59.616 79.92v-76.32q0-2.736 1.44-4.32 1.584-1.728 4.176-1.728zm93.66 2.304q1.728-2.16 4.176-2.16 2.016 0 3.6 1.584t1.584 3.888q0 2.16-1.296 3.6l-34.992 44.208v43.488q0 2.88-1.728 4.464-1.584 1.584-4.176 1.584t-4.32-1.584q-1.584-1.584-1.584-4.464V204.04l-34.992-44.064q-1.44-1.584-1.44-3.6 0-2.304 1.584-3.888 1.728-1.584 3.888-1.584 2.448 0 4.176 2.16l32.832 41.904z" font-weight="400" font-size="144" font-family="Nunito-Regular,Nunito" letter-spacing="-.269" fill="#eca90b"/></g></svg>